<svg width="147" height="29" viewBox="0 0 147 29" fill="none" xmlns="http://www.w3.org/2000/svg">
<path d="M7.20503 6.37449H0.200487C0.0123853 6.37449 -0.0234436 6.26497 0.0123853 6.10982L1.13204 2.54121C1.20369 2.38606 1.28431 2.34955 1.46345 2.34955H18.939C19.1629 2.34955 19.1987 2.42256 19.1987 2.57772V6.10982C19.1987 6.30148 19.1271 6.37449 18.939 6.37449H11.5224L7.9843 27.0286C7.94847 27.2203 7.91265 27.2933 7.65289 27.2933H3.96252C3.73858 27.2933 3.6311 27.1837 3.66693 26.9921L7.20503 6.37449Z" fill="#FFC715"/>
<path d="M19.5391 8.80225C19.5749 8.57408 19.6466 8.57408 19.8347 8.57408H23.5609C23.7848 8.57408 23.8207 8.64709 23.7848 8.87527L20.5781 27.0286C20.5065 27.2568 20.4348 27.2933 20.2467 27.2933H16.5922C16.4041 27.2933 16.3324 27.2203 16.3324 27.0286L19.5391 8.80225ZM20.1303 3.40828C20.3184 1.92972 21.3933 0.98053 22.8891 0.98053C24.3043 0.98053 25.1642 1.96623 24.9403 3.44478C24.8328 4.88683 23.7848 5.83602 22.3338 5.83602C20.8737 5.84515 19.987 4.85945 20.1303 3.40828Z" fill="#FFC715"/>
<path d="M36.1906 26.7639C36.1547 26.9191 36.1189 27.0286 35.9308 27.1016C34.9276 27.5214 33.996 27.6675 32.5808 27.6675C28.1112 27.6675 24.6447 24.8564 24.6447 19.3894C24.6447 13.0827 29.3383 8.19073 35.3755 8.19073C36.9788 8.19073 37.9103 8.34589 38.5821 8.64708C38.7702 8.72009 38.7702 8.80223 38.7344 8.94826L38.0626 12.2157C38.0268 12.3708 37.9551 12.3708 37.8029 12.3252C37.0594 12.0605 36.4593 11.9875 35.4202 11.9875C31.5418 11.9875 29.0517 15.1728 29.0517 19.0517C29.0517 21.8263 30.5027 23.8342 33.7452 23.8342C34.8291 23.8342 35.6083 23.7247 36.6922 23.3413C36.8803 23.2683 36.9161 23.3778 36.8803 23.533L36.1906 26.7639Z" fill="#FFC715"/>
<path d="M56.4249 8.57408C56.613 8.57408 56.6847 8.72923 56.5324 8.87526C54.6335 10.8467 49.3397 16.049 47.9603 17.491C49.4472 19.7727 52.3942 24.4731 54.105 26.983C54.2125 27.1381 54.1408 27.2841 53.9527 27.2841H49.5905C49.4024 27.2841 49.2591 27.2111 49.1785 27.0195L43.849 18.5497L42.3979 27.0195C42.38 27.2203 42.3352 27.2933 42.1202 27.2933H38.4299C38.2418 27.2933 38.1701 27.1838 38.2059 27.0286L42.7831 0.606323C42.8189 0.451167 42.8906 0.378152 43.0428 0.341644C44.046 0.26863 46.4734 0.113473 46.8407 0.0769653C46.993 0.0769653 47.0646 0.186488 47.0288 0.341644L44.1625 16.8978L51.7672 8.77487C51.8746 8.61971 51.9911 8.5832 52.1434 8.5832L56.4249 8.57408Z" fill="#FFC715"/>
<path d="M67.5677 26.1615C67.5318 26.3897 67.4154 26.4627 67.2363 26.5449C65.9285 27.3024 64.6655 27.6857 62.2023 27.6857C57.8043 27.6857 54.7499 25.1028 54.7499 19.7088C54.7499 13.7855 58.8075 8.19986 64.6655 8.19986C68.9471 8.19986 70.3265 10.6641 70.3713 13.174C70.4071 17.3906 66.9048 19.8549 58.8971 19.7453C58.8971 19.9005 58.8613 20.2017 58.8613 20.3568C58.9329 21.8354 59.757 23.8524 63.1428 23.8524C64.6745 23.8524 66.2689 23.5512 67.917 22.5655C68.0245 22.529 68.1051 22.6021 68.1051 22.7572L67.5677 26.1615ZM66.5197 13.4387C66.5197 12.7177 66.1883 11.6498 64.3252 11.6498C62.1665 11.6498 59.8913 13.6669 59.2196 16.4323C65.3642 16.5874 66.5197 14.7621 66.5197 13.4387Z" fill="#FFC715"/>
<path d="M79.1493 26.6544C79.1135 26.9191 78.9612 27.0377 78.8179 27.1107C77.958 27.5306 77.0265 27.6766 75.6919 27.6766C72.933 27.6766 71.1864 26.1159 71.894 22.0179L73.6496 12.2613H71.267C71.1147 12.2248 71.0431 12.1883 71.0789 11.9601L71.7149 8.81136C71.7507 8.6197 71.7865 8.58319 72.0104 8.58319H74.2856C74.5453 7.10464 74.9215 5.43442 75.1455 4.13841C75.1813 3.98325 75.2171 3.94675 75.4052 3.91024C76.8921 3.87373 77.976 3.64556 79.3554 3.15271C79.5076 3.1162 79.5793 3.22572 79.5793 3.34437C79.2479 4.94157 78.8717 6.75782 78.4955 8.58319H81.738C81.9619 8.58319 82.0336 8.6197 81.9977 8.84787L81.4424 11.9601C81.4424 12.1883 81.3707 12.2248 81.1468 12.2613H77.8685L76.1935 21.7167C75.9695 23.1223 76.1935 23.9985 77.537 23.9985C78.2088 23.9985 78.8 23.9255 79.4718 23.6608C79.5793 23.6243 79.7674 23.5513 79.7674 23.8159L79.1493 26.6544Z" fill="#FFC715"/>
<path d="M115.319 11.3486C113.751 11.3486 112.3 12.3343 111.18 13.895C110.921 14.2327 110.732 14.616 110.661 15.1089L108.717 28.0964H115.229L117.182 14.8077C117.558 12.6355 116.994 11.3486 115.319 11.3486Z" fill="#FFC715"/>
<path d="M145.997 7.57925V0.0495911H131.11V2.55035H129.516V0.0495911H86.0285V7.57925C89.5487 7.57925 92.3971 10.4816 92.3971 14.0685C92.3971 17.6553 89.5487 20.5577 86.0285 20.5577V28.0873H96.5174L100.638 2.03925C100.674 1.84758 100.79 1.81108 100.897 1.81108H104.74C104.964 1.81108 105 1.9206 105 2.11226L100.817 28.0782H104.507L106.899 12.3982C107.159 10.7645 107.382 9.35899 107.454 8.26377C107.49 8.10861 107.49 8.0356 107.714 8.0356H111.109C111.261 8.0356 111.297 8.0356 111.333 8.19075C111.368 8.52845 111.297 9.36812 111.225 10.1256C112.864 8.52845 114.575 7.6614 117.003 7.6614C119.537 7.6614 122.404 9.17646 121.329 15.3736L119.421 28.0873H129.534V25.5866H131.128V28.0873H146.015V20.5577C142.495 20.5577 139.646 17.6553 139.646 14.0685C139.646 10.4816 142.486 7.57925 145.997 7.57925ZM131.11 23.6425H129.516V18.641H131.11V23.6425ZM131.11 16.6057H129.516V11.6042H131.11V16.6057ZM131.11 9.57804H129.516V4.57652H131.11V9.57804Z" fill="#FFC715"/>
</svg>
