<svg width="55" height="55" viewBox="0 0 55 55" fill="none" xmlns="http://www.w3.org/2000/svg">
<g clip-path="url(#clip0_33_128)">
<path d="M49.8438 55H5.15625C2.30313 55 0 52.6969 0 49.8438V5.15625C0 2.30313 2.30313 0 5.15625 0H49.8438C52.6969 0 55 2.30313 55 5.15625V49.8438C55 52.6969 52.6969 55 49.8438 55Z" fill="#232323"/>
<path d="M26.8469 25.0594C25.4031 25.0594 24.0625 25.9531 23.0312 27.3625C22.825 27.6375 22.6531 27.9813 22.5844 28.4281L20.7969 40.15H26.7781L28.5656 28.1531C28.9094 26.1938 28.3937 25.0594 26.8469 25.0594Z" fill="#FFC715"/>
<path d="M55.0688 21.6563V14.85H41.3875V17.1188H39.9094V14.85H-0.0687256V21.6563C3.16252 21.6563 5.77502 24.2688 5.77502 27.5C5.77502 30.7313 3.16252 33.3438 -0.0687256 33.3438V40.15H9.59065L13.3719 16.6375C13.4063 16.4656 13.5094 16.4313 13.6125 16.4313H17.1531C17.3594 16.4313 17.3938 16.5344 17.3938 16.7063L13.5438 40.15H16.9469L19.1469 25.9875C19.3875 24.5094 19.5938 23.2375 19.6625 22.2406C19.6969 22.1031 19.6969 22.0344 19.9031 22.0344H23.0313C23.1688 22.0344 23.2031 22.0344 23.2375 22.1719C23.2719 22.4813 23.2031 23.2375 23.1344 23.925C24.6469 22.4813 26.2281 21.6906 28.4625 21.6906C30.8 21.6906 33.4469 23.0656 32.45 28.6344L30.6969 40.1156H39.9782V37.8469H41.4563V40.1156H55.1375V33.3438C51.9063 33.3438 49.2938 30.7313 49.2938 27.5C49.2938 24.2688 51.8375 21.6563 55.0688 21.6563ZM41.3875 36.1281H39.9094V31.625H41.3875V36.1281ZM41.3875 29.8031H39.9094V25.2656H41.3875V29.8031ZM41.3875 23.4438H39.9094V18.9406H41.3875V23.4438Z" fill="#FFC715"/>
</g>
<defs>
<clipPath id="clip0_33_128">
<rect width="55" height="55" fill="white"/>
</clipPath>
</defs>
</svg>
