<svg width="40" height="29" viewBox="0 0 40 29" fill="none" xmlns="http://www.w3.org/2000/svg">
<path d="M0 5.6C0 4.16406 1.19391 3 2.66667 3H5.33333C6.80609 3 8 4.16406 8 5.6V18.6C8 20.0359 9.19391 21.2 10.6667 21.2H29.3333C30.8061 21.2 32 20.0359 32 18.6V5.6C32 4.16406 33.1939 3 34.6667 3H37.3333C38.8061 3 40 4.16406 40 5.6V25.1C40 27.2539 38.2091 29 36 29C35.9211 29 35.8426 28.9978 35.7648 28.9934C35.5096 28.9789 35.2532 28.9749 34.998 28.9901C34.8884 28.9967 34.7779 29 34.6667 29H5.33333C5.22206 29 5.11157 28.9967 5.00199 28.9901C4.74679 28.9749 4.49042 28.9789 4.23517 28.9934C4.15735 28.9978 4.07894 29 4 29C1.79086 29 0 27.2539 0 25.1V5.6Z" fill="#F2F2F2"/>
<path d="M9 3C9 1.34315 10.3431 0 12 0H28C29.6569 0 31 1.34315 31 3V19C31 19.5523 30.5523 20 30 20H10C9.44772 20 9 19.5523 9 19V3Z" fill="#F2F2F2"/>
</svg>
