<svg width="26" height="26" viewBox="0 0 26 26" fill="none" xmlns="http://www.w3.org/2000/svg">
<path d="M15.0038 4.60449V7.22616" stroke="white" stroke-width="1.5" stroke-linecap="round" stroke-linejoin="round"/>
<path d="M15.0038 19.24V21.4327" stroke="white" stroke-width="1.5" stroke-linecap="round" stroke-linejoin="round"/>
<path d="M15.0038 15.5184V10.2957" stroke="white" stroke-width="1.5" stroke-linecap="round" stroke-linejoin="round"/>
<path fill-rule="evenodd" clip-rule="evenodd" d="M20.2606 21.6666C22.2346 21.6666 23.8333 20.0877 23.8333 18.1383V15.3298C22.5272 15.3298 21.4753 14.2909 21.4753 13.001C21.4753 11.7111 22.5272 10.6712 23.8333 10.6712L23.8322 7.86151C23.8322 5.91215 22.2323 4.33325 20.2595 4.33325H5.7405C3.76772 4.33325 2.1678 5.91215 2.1678 7.86151L2.16667 10.7627C3.47282 10.7627 4.52474 11.7111 4.52474 13.001C4.52474 14.2909 3.47282 15.3298 2.16667 15.3298V18.1383C2.16667 20.0877 3.76546 21.6666 5.73937 21.6666H20.2606Z" stroke="white" stroke-width="1.5" stroke-linecap="round" stroke-linejoin="round"/>
</svg>
