<svg width="26" height="26" viewBox="0 0 26 26" fill="none" xmlns="http://www.w3.org/2000/svg">
<path d="M2.97928 3.52075L5.23261 3.91075L6.27586 16.3398C6.35928 17.3549 7.20753 18.1338 8.22586 18.1306H20.0439C21.0157 18.1328 21.8401 17.4178 21.9777 16.4558L23.0058 9.35125C23.1206 8.55717 22.5692 7.8205 21.7762 7.70567C21.7069 7.69592 5.59445 7.6905 5.59445 7.6905" stroke="white" stroke-width="1.5" stroke-linecap="round" stroke-linejoin="round"/>
<path d="M15.3022 11.6945H18.3063" stroke="white" stroke-width="1.5" stroke-linecap="round" stroke-linejoin="round"/>
<path fill-rule="evenodd" clip-rule="evenodd" d="M7.7506 21.886C8.07669 21.886 8.33994 22.1503 8.33994 22.4753C8.33994 22.8014 8.07669 23.0657 7.7506 23.0657C7.42452 23.0657 7.16127 22.8014 7.16127 22.4753C7.16127 22.1503 7.42452 21.886 7.7506 21.886Z" fill="white" stroke="white" stroke-width="1.5" stroke-linecap="round" stroke-linejoin="round"/>
<path fill-rule="evenodd" clip-rule="evenodd" d="M19.9709 21.886C20.297 21.886 20.5613 22.1503 20.5613 22.4753C20.5613 22.8014 20.297 23.0657 19.9709 23.0657C19.6448 23.0657 19.3816 22.8014 19.3816 22.4753C19.3816 22.1503 19.6448 21.886 19.9709 21.886Z" fill="white" stroke="white" stroke-width="1.5" stroke-linecap="round" stroke-linejoin="round"/>
</svg>
